<?xml version="1.0" encoding="utf-8"?>

<!DOCTYPE svg PUBLIC "-//W3C//DTD SVG 1.1//EN" "http://www.w3.org/Graphics/SVG/1.1/DTD/svg11.dtd">
<!-- Uploaded to: SVG Repo, www.svgrepo.com, Generator: SVG Repo Mixer Tools -->
<svg version="1.1" id="_x32_" xmlns="http://www.w3.org/2000/svg" xmlns:xlink="http://www.w3.org/1999/xlink" 
	 width="800px" height="800px" viewBox="0 0 512 512"  xml:space="preserve">
<style type="text/css">
<![CDATA[
	.st0{fill:#000000;}
]]>
</style>
<g>
	<path class="st0" d="M358.359,23.406C358.359,10.484,347.875,0,334.953,0H177.047c-12.922,0-23.406,10.484-23.406,23.406v50.234
		h204.719V23.406z"/>
	<path class="st0" d="M371.188,162.453c-20.766-10.391-27.703-34.641-27.703-55.422c0-1.344,0-3.328,0-5.875
		c0-0.938,0-1.813,0-2.938H168.516c0,1.125,0,2,0,2.938c0,0.313,0,1.969,0,5.875c0,20.781-6.938,45.031-27.703,55.422
		c-24.813,12.391-35.219,30.859-35.219,74.969c0,15.734,0,162.766,0,187.969c0,42.516,29.922,86.609,89.781,86.609h121.25
		c59.859,0,89.781-44.094,89.781-86.609c0-25.203,0-172.234,0-187.969C406.406,193.313,396,174.844,371.188,162.453z
		 M357.156,406.719H154.844V241.547h202.313V406.719z"/>
	<polygon class="st0" points="238.688,386.922 273.297,386.922 273.297,345.828 314.375,345.828 314.375,311.25 273.297,311.25 
		273.297,270.156 238.688,270.156 238.688,311.25 197.625,311.25 197.625,345.828 238.688,345.828 	"/>
</g>
</svg>