<?xml version="1.0" encoding="iso-8859-1"?>
<!-- Uploaded to: SVG Repo, www.svgrepo.com, Generator: SVG Repo Mixer Tools -->
<svg version="1.1" id="Layer_1" xmlns="http://www.w3.org/2000/svg" xmlns:xlink="http://www.w3.org/1999/xlink" 
	 viewBox="0 0 512 512" xml:space="preserve">
<path style="fill:#EFEFEF;" d="M349.58,500.989H162.419c-22.81,0-41.3-18.491-41.3-41.3V200.956c0-22.809,18.49-41.3,41.3-41.3
	H349.58c22.81,0,41.301,18.491,41.301,41.3v258.732C390.882,482.498,372.39,500.989,349.58,500.989z"/>
<rect x="192.688" y="66.065" style="fill:#ffffff;" width="126.624" height="93.591"/>
<path style="fill:#ffffff;" d="M256,11.011L256,11.011c-15.203,0-27.527,12.324-27.527,27.527v27.527h55.054V38.538
	C283.527,23.335,271.203,11.011,256,11.011z"/>
<path style="fill:#ffffff;" d="M299.746,346.14c0,24.161-19.586,43.747-43.747,43.747s-43.747-19.586-43.747-43.747
	s43.747-87.493,43.747-87.493S299.746,321.98,299.746,346.14z"/>
<g>
	<path style="fill:#000000;" d="M349.58,148.645h-19.258V66.065c0-6.08-4.931-11.011-11.011-11.011h-24.774V38.538
		C294.538,17.288,277.25,0,256,0s-38.538,17.288-38.538,38.538v16.516h-24.774c-6.081,0-11.011,4.931-11.011,11.011v82.581h-19.259
		c-28.845,0-52.311,23.467-52.311,52.312v258.731c0,28.845,23.467,52.312,52.311,52.312H349.58
		c28.845,0,52.312-23.467,52.312-52.312V200.957C401.892,172.112,378.426,148.645,349.58,148.645z M239.484,38.538
		c0-9.107,7.409-16.516,16.516-16.516c9.107,0,16.516,7.409,16.516,16.516v16.516h-33.032V38.538z M203.699,77.075h104.602v71.57
		H203.699V77.075z M379.871,459.688c0,16.702-13.588,30.291-30.291,30.291H162.419c-16.701,0-30.289-13.588-30.289-30.291V200.957
		c0-16.702,13.588-30.291,30.289-30.291H349.58c16.702,0,30.291,13.588,30.291,30.291V459.688z"/>
	<path style="fill:#231F20;" d="M346.839,192.688H165.161c-6.081,0-11.011,4.931-11.011,11.011v253.247
		c0,6.08,4.93,11.011,11.011,11.011h181.677c6.08,0,11.011-4.931,11.011-11.011v-81.755c0-6.08-4.931-11.011-11.011-11.011
		s-11.011,4.931-11.011,11.011v70.744H176.172V214.71h159.656v37.161c0,6.08,4.931,11.011,11.011,11.011s11.011-4.931,11.011-11.011
		v-48.172C357.849,197.619,352.92,192.688,346.839,192.688z"/>
	<path style="fill:#231F20;" d="M346.839,303.071c-6.08,0-11.011,4.931-11.011,11.011v3.303c0,6.08,4.931,11.011,11.011,11.011
		s11.011-4.931,11.011-11.011v-3.303C357.849,308.002,352.92,303.071,346.839,303.071z"/>
	<path style="fill:#231F20;" d="M256,247.636c-3.617,0-7.004,1.776-9.06,4.752c-7.63,11.047-45.697,67.487-45.697,93.751
		c0,30.194,24.564,54.756,54.756,54.756s54.758-24.564,54.758-54.756c0-26.264-38.066-82.703-45.698-93.751
		C263.004,249.413,259.616,247.636,256,247.636z M288.736,346.14c0,18.051-14.685,32.735-32.736,32.735
		s-32.735-14.685-32.735-32.735c0-11.916,17.018-43.009,32.737-67.582C271.72,303.124,288.736,334.21,288.736,346.14z"/>
</g>
</svg>