<?xml version="1.0" encoding="iso-8859-1"?>
<!-- Uploaded to: SVG Repo, www.svgrepo.com, Generator: SVG Repo Mixer Tools -->
<svg fill="#000000" height="800px" width="800px" version="1.1" id="Layer_1" xmlns="http://www.w3.org/2000/svg" xmlns:xlink="http://www.w3.org/1999/xlink" 
	 viewBox="0 0 512.001 512.001" xml:space="preserve">
<g>
	<g>
		<path d="M226.697,184.24L68.556,342.381c-3.205,3.205-5.169,7.442-5.548,11.959l-5.575,66.913L7.58,471.109
			c-9.355,9.355-9.355,24.52,0,33.875c4.677,4.677,10.808,7.017,16.937,7.017c6.13,0,12.261-2.339,16.937-7.017l49.852-49.854
			l66.915-5.575c4.518-0.377,8.754-2.343,11.959-5.548l158.141-158.141L226.697,184.24z"/>
	</g>
</g>
<g>
	<g>
		<path d="M389.243,157.198l58.887-58.887l-33.875-33.877l-58.887,58.887L311.33,79.284c-9.352-9.355-24.52-9.355-33.875,0
			c-9.355,9.355-9.355,24.52,0,33.875l10.163,10.163l-33.819,33.819l101.627,101.627l33.818-33.819l10.163,10.163
			c4.677,4.677,10.808,7.017,16.938,7.017c6.129,0,12.261-2.339,16.937-7.017c9.355-9.353,9.355-24.52,0-33.875L389.243,157.198z"/>
	</g>
</g>
<g>
	<g>
		<path d="M504.419,64.603L446.832,7.016c-9.355-9.355-24.52-9.355-33.875,0c-5.014,5.013-7.312,11.693-6.953,18.254
			c0.31,5.683,2.613,11.279,6.953,15.621l57.589,57.589c3.762,3.764,8.472,5.987,13.358,6.721c1.187,0.179,2.381,0.295,3.579,0.295
			c6.13,0,12.261-2.338,16.938-7.017C513.776,89.124,513.776,73.958,504.419,64.603z"/>
	</g>
</g>
</svg>