<?xml version="1.0" encoding="iso-8859-1"?>
<!-- Uploaded to: SVG Repo, www.svgrepo.com, Generator: SVG Repo Mixer Tools -->
<svg fill="#000000" height="800px" width="800px" version="1.1" id="Layer_1" xmlns="http://www.w3.org/2000/svg" xmlns:xlink="http://www.w3.org/1999/xlink" 
	 viewBox="0 0 512 512" xml:space="preserve">
<g>
	<g>
		<path d="M380.919,8.209C376.352,2.992,369.754,0,362.82,0H149.179c-6.934,0-13.532,2.992-18.099,8.209
			c-4.568,5.217-6.664,12.151-5.749,19.026l51.925,390.038c1.188,8.909,7.229,16.177,15.227,19.272v66.833
			c0,4.763,3.86,8.622,8.622,8.622h113.755c4.762,0,8.622-3.859,8.622-8.622V434.57c5.98-3.691,10.284-9.93,11.265-17.298
			l51.923-390.038C387.585,20.36,385.488,13.426,380.919,8.209z M236.941,494.756c3.636-6.682,11.333-11.316,20.248-11.316
			c8.914,0,16.61,4.634,20.246,11.316H236.941z M306.236,494.756h-0.001h-10.404c-4.167-16.356-19.906-28.56-38.643-28.56
			c-18.737,0-34.476,12.204-38.644,28.56h-8.818v-56.6h96.511V494.756z M369.576,24.96l-1.7,12.77h-184.3
			c-4.762,0-8.622,3.859-8.622,8.622c0,4.763,3.86,8.622,8.622,8.622H365.58l-47.929,360.024c-0.449,3.373-3.353,5.916-6.755,5.916
			H201.104c-3.402,0-6.307-2.544-6.755-5.916L142.423,24.96c-0.355-2.666,0.868-4.522,1.629-5.39
			c0.76-0.868,2.437-2.324,5.126-2.324H362.82c2.689,0,4.366,1.458,5.126,2.324C368.708,20.437,369.93,22.294,369.576,24.96z"/>
	</g>
</g>
<g>
	<g>
		<path d="M335.462,96.236c-1.637-1.87-4.002-2.944-6.488-2.944H182.372c-2.497,0.001-4.87,1.084-6.508,2.968
			c-1.638,1.884-2.377,4.386-2.03,6.858l10.334,73.311c0.6,4.255,4.241,7.418,8.538,7.418h126.471c4.32,0,7.974-3.197,8.546-7.48
			l9.799-73.311C337.85,100.593,337.1,98.107,335.462,96.236z M311.629,166.605H200.197l-7.903-56.068h126.829L311.629,166.605z"/>
	</g>
</g>
<g>
	<g>
		<path d="M319.801,213.399c-1.636-1.869-4.001-2.943-6.487-2.943H198.887c-2.497,0-4.871,1.082-6.508,2.967
			c-1.638,1.884-2.377,4.386-2.03,6.858l21.277,150.946c0.6,4.255,4.241,7.418,8.538,7.418h72.976c4.32,0,7.974-3.197,8.546-7.48
			l20.175-150.946C322.189,217.756,321.44,215.269,319.801,213.399z M285.592,361.402h-57.937L208.809,227.7h94.653L285.592,361.402
			z"/>
	</g>
</g>
</svg>