<?xml version="1.0" encoding="utf-8"?>
<!-- Uploaded to: SVG Repo, www.svgrepo.com, Generator: SVG Repo Mixer Tools -->
<svg width="800px" height="800px" viewBox="0 0 1024 1024" class="icon"  version="1.1" xmlns="http://www.w3.org/2000/svg"><path d="M731.5 870.1c-34.6 0-69.2-13.2-95.6-39.5L499.7 694.3l191.2-191.2 136.2 136.2c25.4 25.4 39.4 59.4 39.4 95.6s-14 70.2-39.4 95.6c-26.4 26.4-61 39.6-95.6 39.6zM520.9 694.3l125.6 125.6c46.9 46.9 123.1 46.9 170 0 22.6-22.6 35.1-52.8 35.1-85s-12.4-62.4-35.1-85L690.9 524.3l-170 170zM329.7 524.3L193.4 388.1C168 362.6 154 328.7 154 292.5s14-70.2 39.4-95.6 59.4-39.4 95.6-39.4 70.2 14 95.6 39.4l136.2 136.2-191.1 191.2z m-40.7-352c-30.8 0-61.6 11.7-85 35.1-46.9 46.9-46.9 123.1 0 170L329.6 503l170-170L374 207.5c-23.4-23.4-54.2-35.2-85-35.2z" fill="#999999" /><path d="M352.96 519.352l161.713-161.714 151.108 151.107L504.067 670.46z" fill="#000000" /><path d="M289.2 873c-34.1 0-66.2-13.2-90.2-37.2l-10.9-10.9c-49.7-49.7-49.7-130.6 0-180.3l453.3-453.3c24-24 56-37.2 90.2-37.2s66.2 13.2 90.2 37.2l10.9 10.9c24 24 37.2 56 37.2 90.2s-13.2 66.2-37.2 90.2L379.4 835.8c-24 24-56 37.2-90.2 37.2z m442.5-703.9c-30.1 0-58.4 11.6-79.5 32.8L198.8 655.2c-43.9 43.9-43.9 115.2 0 159.1l10.9 10.9c21.2 21.2 49.4 32.8 79.5 32.8s58.4-11.7 79.5-32.8L822 371.9c21.2-21.2 32.8-49.4 32.8-79.5S843.1 234 822 212.9L811.1 202c-21-21.3-49.3-32.9-79.4-32.9z" fill="#000000" /><path d="M502.063946 427.935843a12.8 12.8 0 1 0 4.101338-25.26933 12.8 12.8 0 1 0-4.101338 25.26933Z" fill="#FFFFFF" /><path d="M504.1 432.1c-4.3 0-8.6-1.6-11.9-4.9-6.5-6.5-6.5-17.2 0-23.7 3.2-3.2 7.4-4.9 11.9-4.9s8.7 1.7 11.9 4.9c6.5 6.5 6.5 17.2 0 23.7-3.4 3.2-7.6 4.9-11.9 4.9z m0-25.5c-2.3 0-4.5 0.9-6.2 2.6-3.4 3.4-3.4 9 0 12.4s9 3.4 12.4 0c3.4-3.4 3.4-9 0-12.4-1.7-1.7-3.9-2.6-6.2-2.6z" fill="#999999" /><path d="M556.4 467.6m-12.8 0a12.8 12.8 0 1 0 25.6 0 12.8 12.8 0 1 0-25.6 0Z" fill="#FFFFFF" /><path d="M556.4 484.4c-4.3 0-8.6-1.6-11.9-4.9-6.5-6.5-6.5-17.2 0-23.7s17.2-6.5 23.7 0 6.5 17.2 0 23.7c-3.3 3.2-7.6 4.9-11.8 4.9z m0-25.5c-2.2 0-4.5 0.9-6.2 2.6-3.4 3.4-3.4 9 0 12.4s9 3.4 12.4 0 3.4-9 0-12.4c-1.8-1.8-4-2.6-6.2-2.6z" fill="#999999" /><path d="M608.6 519.9m-12.8 0a12.8 12.8 0 1 0 25.6 0 12.8 12.8 0 1 0-25.6 0Z" fill="#FFFFFF" /><path d="M608.6 536.7c-4.3 0-8.6-1.6-11.9-4.9-3.2-3.2-4.9-7.4-4.9-11.9s1.7-8.7 4.9-11.9c3.2-3.2 7.4-4.9 11.9-4.9s8.7 1.7 11.9 4.9c3.2 3.2 4.9 7.4 4.9 11.9s-1.7 8.7-4.9 11.9c-3.3 3.2-7.6 4.9-11.9 4.9z m0-25.6c-2.3 0-4.5 0.9-6.2 2.6s-2.6 3.9-2.6 6.2 0.9 4.5 2.6 6.2c3.4 3.4 9 3.4 12.4 0 1.7-1.7 2.6-3.9 2.6-6.2s-0.9-4.5-2.6-6.2c-1.6-1.6-3.8-2.6-6.2-2.6z" fill="#999999" /><path d="M458.2 461.2m-12.8 0a12.8 12.8 0 1 0 25.6 0 12.8 12.8 0 1 0-25.6 0Z" fill="#FFFFFF" /><path d="M458.2 478c-4.3 0-8.6-1.6-11.9-4.9-3.2-3.2-4.9-7.4-4.9-11.9s1.7-8.7 4.9-11.9c6.5-6.5 17.2-6.5 23.7 0 3.2 3.2 4.9 7.4 4.9 11.9s-1.7 8.7-4.9 11.9c-3.3 3.2-7.5 4.9-11.8 4.9z m0-25.5c-2.2 0-4.5 0.9-6.2 2.6s-2.6 3.9-2.6 6.2c0 2.3 0.9 4.5 2.6 6.2 3.4 3.4 9 3.4 12.4 0 1.7-1.7 2.6-3.9 2.6-6.2 0-2.3-0.9-4.5-2.6-6.2-1.8-1.8-4-2.6-6.2-2.6z" fill="#999999" /><path d="M510.5 513.5m-12.8 0a12.8 12.8 0 1 0 25.6 0 12.8 12.8 0 1 0-25.6 0Z" fill="#FFFFFF" /><path d="M510.5 530.3c-4.5 0-8.7-1.7-11.9-4.9-3.2-3.2-4.9-7.4-4.9-11.9s1.7-8.7 4.9-11.9c6.5-6.5 17.2-6.5 23.7 0 3.2 3.2 4.9 7.4 4.9 11.9s-1.7 8.7-4.9 11.9c-3.2 3.1-7.4 4.9-11.8 4.9z m0-25.5c-2.2 0-4.5 0.9-6.2 2.6s-2.6 3.9-2.6 6.2 0.9 4.5 2.6 6.2 3.9 2.6 6.2 2.6c2.3 0 4.5-0.9 6.2-2.6 1.7-1.7 2.6-3.9 2.6-6.2s-0.9-4.5-2.6-6.2c-1.8-1.8-4-2.6-6.2-2.6z" fill="#999999" /><path d="M562.7 565.8m-12.8 0a12.8 12.8 0 1 0 25.6 0 12.8 12.8 0 1 0-25.6 0Z" fill="#FFFFFF" /><path d="M562.7 582.6c-4.3 0-8.6-1.6-11.9-4.9-6.5-6.5-6.5-17.2 0-23.7s17.2-6.5 23.7 0 6.5 17.2 0 23.7c-3.2 3.2-7.5 4.9-11.8 4.9z m0-25.6c-2.2 0-4.5 0.9-6.2 2.6-3.4 3.4-3.4 9 0 12.4s9 3.4 12.4 0 3.4-9 0-12.4c-1.7-1.7-3.9-2.6-6.2-2.6z" fill="#999999" /><path d="M412.3 507.1m-12.8 0a12.8 12.8 0 1 0 25.6 0 12.8 12.8 0 1 0-25.6 0Z" fill="#FFFFFF" /><path d="M412.3 523.9c-4.5 0-8.7-1.7-11.9-4.9-3.2-3.2-4.9-7.4-4.9-11.9s1.7-8.7 4.9-11.9c3.2-3.2 7.4-4.9 11.9-4.9s8.7 1.7 11.9 4.9c6.5 6.5 6.5 17.2 0 23.7-3.3 3.2-7.5 5-11.9 5z m0-25.5c-2.3 0-4.5 0.9-6.2 2.6s-2.6 3.9-2.6 6.2c0 2.3 0.9 4.5 2.6 6.2s3.9 2.6 6.2 2.6c2.3 0 4.5-0.9 6.2-2.6 3.4-3.4 3.4-9 0-12.4-1.7-1.7-3.9-2.6-6.2-2.6z" fill="#999999" /><path d="M464.6 559.4m-12.8 0a12.8 12.8 0 1 0 25.6 0 12.8 12.8 0 1 0-25.6 0Z" fill="#FFFFFF" /><path d="M464.6 576.2c-4.5 0-8.7-1.7-11.9-4.9-3.2-3.2-4.9-7.4-4.9-11.9s1.7-8.7 4.9-11.9c3.2-3.2 7.4-4.9 11.9-4.9s8.7 1.7 11.9 4.9c3.2 3.2 4.9 7.4 4.9 11.9s-1.7 8.7-4.9 11.9c-3.3 3.1-7.5 4.9-11.9 4.9z m0-25.6c-2.3 0-4.5 0.9-6.2 2.6-1.7 1.7-2.6 3.9-2.6 6.2s0.9 4.5 2.6 6.2 3.9 2.6 6.2 2.6c2.3 0 4.5-0.9 6.2-2.6 1.7-1.7 2.6-3.9 2.6-6.2s-0.9-4.5-2.6-6.2c-1.7-1.6-3.9-2.6-6.2-2.6z" fill="#999999" /><path d="M516.8 611.7m-12.8 0a12.8 12.8 0 1 0 25.6 0 12.8 12.8 0 1 0-25.6 0Z" fill="#FFFFFF" /><path d="M516.8 628.5c-4.3 0-8.6-1.6-11.9-4.9-6.5-6.5-6.5-17.2 0-23.7 3.2-3.2 7.4-4.9 11.9-4.9s8.7 1.7 11.9 4.9c6.5 6.5 6.5 17.2 0 23.7-3.3 3.2-7.6 4.9-11.9 4.9z m0-25.6c-2.3 0-4.5 0.9-6.2 2.6-3.4 3.4-3.4 9 0 12.4 3.4 3.4 9 3.4 12.4 0s3.4-9 0-12.4c-1.6-1.6-3.8-2.6-6.2-2.6z" fill="#999999" /><path d="M339.01 535.543l5.656-5.657 152.168 152.168-5.657 5.657zM523.102 348.24l5.657-5.656 152.168 152.168-5.657 5.657z" fill="#999999" /></svg>