<?xml version="1.0" encoding="utf-8"?>

<!DOCTYPE svg PUBLIC "-//W3C//DTD SVG 1.1//EN" "http://www.w3.org/Graphics/SVG/1.1/DTD/svg11.dtd">
<!-- Uploaded to: SVG Repo, www.svgrepo.com, Generator: SVG Repo Mixer Tools -->
<svg height="800px" width="800px" version="1.1" id="_x32_" xmlns="http://www.w3.org/2000/svg" xmlns:xlink="http://www.w3.org/1999/xlink" 
	 viewBox="0 0 512 512"  xml:space="preserve">
<style type="text/css">
	.st0{fill:#000000;}
</style>
<g>
	<path class="st0" d="M471.199,231.069L271.6,33.725l0.044,0.093C249.149,11.271,219.501-0.05,189.995,0
		c-29.463-0.05-59.112,11.271-81.609,33.818c-22.54,22.49-33.857,52.092-33.815,81.609c-0.042,29.502,11.274,59.147,33.815,81.645
		l47.106,46.6c-1.42-0.043-2.842-0.043-4.259-0.043c-38.632,0-73.726,9.714-99.984,26.161
		c-13.106,8.245-24.057,18.189-31.846,29.782c-7.832,11.55-12.417,24.835-12.417,38.858v78.719c0,14.016,4.585,27.308,12.417,38.858
		c11.732,17.364,30.377,31.15,53.107,40.83c22.773,9.664,49.762,15.113,78.723,15.163c38.579-0.05,73.676-9.758,99.93-26.211
		c13.149-8.202,24.054-18.188,31.89-29.781c7.793-11.55,12.374-24.842,12.374-38.858v-35.144l12.554,12.425l-0.043-0.1
		c22.494,22.54,52.143,33.868,81.648,33.818c29.466,0.05,59.112-11.278,81.612-33.768c22.54-22.548,33.814-52.143,33.814-81.659
		C505.013,283.212,493.739,253.609,471.199,231.069z M141.473,148.686c-19.106-19.149-19.106-50.63,0.272-70.009
		c9.346-9.349,21.809-14.525,35.102-14.525L141.473,148.686z M29.896,338.43c0.043-9.026,2.839-17.637,8.482-26.075
		c4.95-7.37,12.231-14.432,21.347-20.705l175.312,102.594c-3.986,2.194-8.201,4.259-12.65,6.137
		c-20.113,8.567-44.672,13.608-71.152,13.608c-35.38,0.05-67.27-9.026-89.764-23.186c-11.27-7.097-20.16-15.4-26.118-24.283
		c-2.205-3.305-4.033-6.645-5.456-10.08V338.43z M272.518,417.15c0,9.026-2.842,17.644-8.474,26.068
		c-8.438,12.56-23.418,24.196-43.074,32.542c-19.612,8.338-43.715,13.335-69.736,13.335c-34.735,0-66.029-8.94-87.792-22.684
		c-10.908-6.832-19.433-14.848-25.064-23.193c-5.642-8.424-8.439-17.042-8.482-26.068v-32.484
		c11.087,12.274,26.211,22.498,44.034,30.054c22.268,9.449,48.798,14.854,77.304,14.854c37.983,0,72.44-9.586,98.005-25.623
		c8.98-5.586,16.816-12.045,23.279-19.243V417.15z M272.518,356.44c-0.272,0.688-0.552,1.326-0.918,2.014
		c-1.233,2.753-2.749,5.406-4.538,8.065c-3.847,5.772-9.026,11.228-15.164,16.311L78.329,281.29c1.054-0.459,2.065-1.011,3.116-1.42
		c19.611-8.338,43.715-13.335,69.79-13.335c10.26,0,20.208,0.781,29.689,2.251c22.637,3.434,42.704,10.762,58.054,20.382
		c1.878,1.147,3.667,2.388,5.359,3.628c8.294,5.908,14.847,12.46,19.475,19.293c0.093,0.086,0.183,0.179,0.233,0.265
		c5.632,8.438,8.474,17.049,8.474,26.075V356.44z M451.77,374.9c-17.228,17.192-39.639,25.752-62.183,25.752
		c-22.588,0-44.991-8.524-62.223-25.752l-0.046-0.043l-31.89-31.524v-4.903c0-14.024-4.581-27.309-12.374-38.858
		c-9.801-14.432-24.326-26.39-42.016-35.553c2.201-5.728,4.994-11.966,8.432-18.368c9.714-18.246,24.286-38.041,43.578-53.247
		c19.196-15.17,42.798-25.982,71.984-27.638l86.692,85.731h0.046c17.182,17.228,25.749,39.683,25.749,62.223
		C477.519,335.268,468.952,357.723,451.77,374.9z"/>
</g>
</svg>