<?xml version="1.0" encoding="UTF-8"?>
<svg id="Layer_1" data-name="Layer 1" xmlns="http://www.w3.org/2000/svg" viewBox="0 0 1278.75 894.35">
  <defs>
    <style>
      .cls-1 {
        fill: #1b7ae2;
      }
    </style>
  </defs>
  <path class="cls-1" d="m550.54,870.82v23.52c-2.86-.39-5.69-.79-8.52-1.23-2.61-.39-5.2-.81-7.81-1.23l-.37-.07c-2.49-.42-5-.84-7.49-1.28-5.44-.99-10.86-2.02-16.23-3.13-2.46-.49-4.93-1.01-7.37-1.55-5.2-1.13-10.35-2.32-15.47-3.57-5.15-1.26-10.25-2.56-15.32-3.94-2.56-.69-5.07-1.38-7.61-2.12-2.54-.71-5.05-1.45-7.56-2.19-2.51-.74-5.03-1.5-7.54-2.29-1.8-.57-3.62-1.13-5.42-1.7-1.35-.44-2.71-.86-4.04-1.33-1.82-.59-3.65-1.21-5.47-1.82-2.49-.84-4.95-1.68-7.41-2.56-2.46-.86-4.93-1.75-7.37-2.64-4.56-1.67-9.11-3.4-13.62-5.17-10.03-3.92-19.9-8.1-29.66-12.51-2.24-1.01-4.46-2.02-6.68-3.05-1.58-.74-3.18-1.48-4.75-2.24-1.53-.71-3.03-1.45-4.53-2.17-1.7-.84-3.4-1.68-5.07-2.51-2.09-1.03-4.16-2.07-6.21-3.1-1.65-.86-3.3-1.7-4.93-2.56-1.53-.79-3.05-1.6-4.58-2.41-10.74-5.71-21.31-11.73-31.68-18.03-2.19-1.33-4.38-2.66-6.55-4.04-2.76-1.72-5.49-3.45-8.23-5.22-1.31-.84-2.61-1.68-3.92-2.54-17.71-11.63-34.78-24.09-51.21-37.34-1.77-1.4-3.52-2.83-5.25-4.29-5.1-4.21-10.12-8.47-15.08-12.83-1.53-1.33-3.03-2.66-4.53-4.02-1.8-1.63-3.6-3.25-5.39-4.9-1.72-1.58-3.45-3.15-5.15-4.75-10.25-9.58-20.17-19.51-29.78-29.76-1.26-1.33-2.49-2.66-3.72-4.02-1.97-2.14-3.92-4.29-5.89-6.45-1.5-1.7-3.03-3.4-4.53-5.12-16.45-18.75-31.83-38.48-46.01-59.07-1.16-1.65-2.29-3.3-3.4-4.98-4.31-6.38-8.5-12.83-12.59-19.39-1.38-2.17-2.71-4.36-4.04-6.55-1.35-2.22-2.68-4.46-4.01-6.7-2.41-4.04-4.75-8.13-7.07-12.24-.37-.69-.76-1.35-1.13-2.04-1.08-1.92-2.14-3.87-3.18-5.79-3.69-6.8-7.27-13.67-10.71-20.62-.89-1.75-1.75-3.52-2.61-5.3-2.51-5.2-4.98-10.44-7.37-15.74-.84-1.82-1.65-3.65-2.46-5.49-3.18-7.22-6.23-14.48-9.14-21.85-.54-1.33-1.06-2.64-1.55-3.97-.62-1.55-1.21-3.1-1.8-4.66-.99-2.59-1.97-5.2-2.91-7.81-.84-2.29-1.68-4.58-2.46-6.87-.89-2.46-1.72-4.93-2.56-7.41-.59-1.7-1.16-3.4-1.72-5.12-.49-1.53-1.01-3.05-1.48-4.58-2.17-6.72-4.21-13.5-6.13-20.32-.69-2.44-1.38-4.85-2.04-7.32-1.55-5.71-3.01-11.45-4.41-17.24-.49-2.02-.96-4.04-1.43-6.08-.57-2.39-1.08-4.75-1.63-7.17-3.5-15.99-6.38-32.22-8.65-48.65-.35-2.36-.67-4.75-.96-7.14-.3-2.29-.59-4.56-.84-6.85-.25-2.14-.49-4.29-.71-6.45-.17-1.53-.32-3.03-.47-4.56-.22-2.09-.42-4.19-.59-6.28-.25-2.69-.47-5.39-.67-8.1-.22-2.71-.39-5.42-.57-8.13-.17-2.71-.35-5.44-.47-8.15-.12-2.22-.22-4.41-.3-6.63-.07-1.67-.15-3.35-.2-5.02-.07-2.04-.12-4.11-.17-6.16-.12-5.02-.17-10.05-.17-15.1,35.13,0,67.89,12.09,93.87,32.74,26.01,20.64,45.25,49.86,53.33,84.02.25,1.03.49,2.07.76,3.1.27,1.21.57,2.36.86,3.55.39,1.65.81,3.28,1.26,4.9.07.32.15.64.25.96.47,1.77.94,3.52,1.43,5.27.64,2.36,1.31,4.7,2,7.02.44,1.58.91,3.15,1.38,4.7.59,1.95,1.18,3.89,1.8,5.81,1.06,3.4,2.17,6.75,3.3,10.12.2.57.39,1.16.59,1.72.84,2.44,1.68,4.85,2.56,7.27.86,2.49,1.77,4.95,2.73,7.39.1.37.25.74.39,1.08,1.75,4.66,3.6,9.26,5.49,13.84,1.01,2.44,2.04,4.9,3.1,7.32,1.03,2.44,2.12,4.85,3.23,7.27,0,0-.02.02,0,.02,1.08,2.39,2.17,4.78,3.33,7.17,1.11,2.39,2.24,4.78,3.42,7.14,1.13,2.36,2.32,4.73,3.55,7.09,1.03,2.04,2.09,4.09,3.18,6.13.27.54.54,1.06.84,1.58,1.11,2.09,2.24,4.19,3.4,6.26,1.23,2.32,2.54,4.61,3.84,6.87,1.26,2.22,2.54,4.43,3.84,6.63.02.07.07.12.12.2,1.33,2.27,2.68,4.51,4.06,6.75,2.73,4.48,5.54,8.92,8.45,13.3,1.43,2.22,2.88,4.38,4.36,6.55,1.45,2.17,2.96,4.31,4.48,6.45,1.48,2.14,3.01,4.29,4.56,6.4,1.5,2.12,3.05,4.21,4.66,6.31,1.55,2.09,3.13,4.19,4.75,6.26,4.78,6.21,9.73,12.32,14.83,18.28,11.85,13.94,24.44,27.22,37.71,39.78,1.9,1.82,3.82,3.6,5.74,5.35-100.28-123.26-117.57-213.79-118.19-217.19-.03-.02-.03-.05-.03-.07l40.5-18.08c37.91-16.92,82.47-1.9,102.27,34.58,1.4,2.61,2.86,5.2,4.34,7.73,1.08,1.9,2.17,3.77,3.3,5.62.05.12.12.22.2.32,1.23,2.09,2.51,4.16,3.82,6.23,4.19,6.68,8.57,13.18,13.18,19.53,1.11,1.53,2.24,3.08,3.37,4.58.52.69,1.03,1.38,1.53,2.04,1.48,1.92,2.96,3.84,4.46,5.74,3.13,3.97,6.36,7.88,9.66,11.7,1.82,2.12,3.65,4.19,5.52,6.23,1.65,1.85,3.33,3.67,5.05,5.49,1.55,1.67,3.13,3.33,4.75,4.98.17.2.37.39.59.59,3.6,3.69,7.29,7.32,11.06,10.81,1.9,1.77,3.79,3.52,5.71,5.22.57.54,1.13,1.03,1.7,1.53,61.11,55.4,105.4,125.65,129.47,202.85h.02c2.27,7.29,4.36,14.66,6.26,22.07,9.56,37.1,14.53,75.57,14.53,114.59Z"/>
  <path class="cls-1" d="m1278.75,261.09c0,10.1-.22,20.12-.69,30.1-.12,2.51-.25,5-.39,7.49-.12,2.22-.27,4.43-.42,6.63-.02.57-.05,1.11-.12,1.65-.15,2.22-.32,4.41-.49,6.6-.2,2.46-.42,4.93-.64,7.39-.69,7.39-1.5,14.76-2.44,22.07-1.26,9.75-2.71,19.44-4.38,29.04-.44,2.41-.86,4.8-1.31,7.19-.44,2.41-.91,4.83-1.4,7.24-.12.64-.25,1.31-.39,1.95-.81,4.06-1.68,8.1-2.56,12.14-.02.12-.05.25-.07.34-.52,2.27-1.03,4.56-1.58,6.82-2.22,9.41-4.63,18.77-7.24,28.01-.02.12-.05.25-.1.37-1.28,4.51-2.61,8.99-3.99,13.45-.71,2.29-1.43,4.58-2.17,6.87-.62,1.92-1.23,3.87-1.87,5.79-.17.54-.35,1.08-.54,1.63-.69,2.07-1.4,4.14-2.12,6.18-.69,2.04-1.4,4.09-2.14,6.11-.15.47-.3.91-.47,1.35-.74,2.02-1.45,4.02-2.22,6.04-.79,2.17-1.63,4.34-2.44,6.5-.07.22-.17.44-.27.67-.79,2.07-1.6,4.11-2.41,6.16-3.5,8.84-7.19,17.59-11.08,26.23-.99,2.17-1.95,4.31-2.96,6.45-2.07,4.53-4.24,9.02-6.43,13.5-.79,1.6-1.6,3.2-2.41,4.8-.57,1.13-1.13,2.29-1.72,3.42-1.31,2.56-2.61,5.1-3.94,7.61-.54,1.06-1.11,2.09-1.67,3.13-.96,1.8-1.92,3.62-2.93,5.42-4.51,8.3-9.24,16.48-14.14,24.56-.86,1.43-1.75,2.88-2.64,4.31-.71,1.16-1.43,2.32-2.14,3.47-3.45,5.52-7,10.96-10.59,16.36-1.03,1.55-2.07,3.08-3.1,4.61-.3.44-.62.89-.91,1.33-1.23,1.77-2.44,3.55-3.69,5.32-4.01,5.74-8.15,11.45-12.37,17.07-2.81,3.74-5.67,7.46-8.57,11.16-2.88,3.67-5.81,7.32-8.79,10.94-1.18,1.45-2.36,2.91-3.57,4.34-3.3,3.94-6.65,7.86-10.05,11.73-1.5,1.72-3.03,3.42-4.53,5.12-1.95,2.17-3.89,4.31-5.89,6.45-1.23,1.35-2.46,2.68-3.72,4.02-2.04,2.19-4.14,4.36-6.23,6.53-2.83,2.96-5.69,5.89-8.6,8.79-3.25,3.23-6.53,6.43-9.85,9.61-1.68,1.63-3.37,3.23-5.1,4.83-3.4,3.2-6.85,6.36-10.35,9.48-1.72,1.55-3.47,3.1-5.25,4.66-1.75,1.53-3.52,3.08-5.3,4.58-5.32,4.58-10.74,9.06-16.21,13.45-5.49,4.41-11.04,8.7-16.68,12.93-3.74,2.81-7.51,5.57-11.33,8.3,0,.02-.02.02-.02.02-1.4,1.01-2.83,2.02-4.26,3.01-2.39,1.7-4.8,3.37-7.24,5.02-.66.44-1.35.91-2.02,1.38-2.64,1.77-5.3,3.55-7.96,5.3-1.58,1.03-3.15,2.07-4.73,3.08-2.46,1.58-4.95,3.15-7.44,4.7-2.17,1.35-4.34,2.71-6.53,4.01-10.37,6.31-20.94,12.32-31.68,18.03-1.8.96-3.6,1.92-5.42,2.86-.44.22-.89.47-1.33.69-1.33.69-2.66,1.38-4.01,2.07-3.69,1.87-7.39,3.72-11.13,5.49-2.66,1.31-5.32,2.56-8.01,3.82-1.65.79-3.3,1.53-4.98,2.29-.39.17-.79.37-1.18.54-2.46,1.11-4.93,2.22-7.44,3.3-2.46,1.11-4.98,2.17-7.49,3.23-2.27.96-4.53,1.92-6.82,2.86-2.91,1.18-5.84,2.36-8.79,3.52-.47.17-.94.37-1.4.54-1.55.62-3.1,1.21-4.68,1.8-2.44.94-4.88,1.85-7.34,2.73-2.44.89-4.9,1.77-7.37,2.64-2.44.89-4.93,1.72-7.39,2.56-1.72.59-3.47,1.18-5.22,1.75-1.43.47-2.86.94-4.31,1.4-1.8.57-3.6,1.13-5.42,1.7-2.49.79-5,1.55-7.51,2.29-2.51.74-5.05,1.48-7.56,2.19-2.22.64-4.46,1.26-6.68,1.85-2.66.74-5.35,1.45-8.01,2.14-2.76.71-5.49,1.4-8.25,2.07-2.56.62-5.15,1.23-7.71,1.82-1.31.32-2.59.62-3.87.89-1.31.3-2.61.57-3.89.86-2.27.49-4.51.96-6.77,1.43-2.78.59-5.59,1.13-8.4,1.68-2.81.54-5.62,1.08-8.45,1.58-2.49.44-4.98.86-7.49,1.28-.12.02-.25.05-.37.07-2.29.37-4.58.74-6.87,1.08-1.48.22-2.96.47-4.43.67-1.48.22-2.96.44-4.43.64-.2.02-.39.05-.59.07v-23.52c0-38.99,4.95-77.47,14.53-114.57,1.9-7.41,3.99-14.78,6.28-22.1,24.07-77.2,68.36-147.45,129.47-202.85.1-.07.2-.17.3-.25.49-.42.94-.84,1.4-1.28,1.92-1.7,3.82-3.45,5.69-5.22,3.79-3.5,7.49-7.12,11.08-10.81,3.62-3.67,7.14-7.41,10.59-11.26,1.55-1.75,3.1-3.5,4.66-5.27.17-.17.32-.34.47-.54,3.37-3.89,6.68-7.88,9.85-11.92,1.6-2.02,3.18-4.06,4.73-6.13,1.58-2.04,3.1-4.14,4.63-6.23,1.38-1.92,2.76-3.87,4.11-5.81.27-.34.49-.69.74-1.06,1.33-1.95,2.66-3.92,3.97-5.89,1.43-2.17,2.83-4.34,4.21-6.53.27-.39.52-.81.76-1.21,1.08-1.75,2.17-3.52,3.25-5.3.05-.07.12-.17.15-.27,1.31-2.17,2.59-4.36,3.84-6.58,1.28-2.24,2.56-4.51,3.79-6.8.1-.15.2-.32.27-.49,19.93-36.14,64.27-50.94,102-34.09l40.5,18.08s0,.05-.02.07c-.62,3.4-17.91,93.92-118.19,217.19,1.92-1.77,3.84-3.55,5.74-5.35,1.9-1.8,3.77-3.6,5.64-5.44,1.87-1.8,3.74-3.65,5.57-5.52,1.65-1.65,3.3-3.33,4.9-5,2.22-2.27,4.41-4.58,6.53-6.9,1.63-1.7,3.18-3.42,4.73-5.15,1.77-1.95,3.52-3.89,5.22-5.86,1.72-1.95,3.42-3.92,5.12-5.91,3.4-3.97,6.75-8.03,9.98-12.12,1.65-2.04,3.25-4.09,4.85-6.16,1.6-2.07,3.18-4.16,4.75-6.26,1.58-2.09,3.13-4.19,4.66-6.31,1.55-2.12,3.05-4.26,4.56-6.4,1.5-2.14,3.01-4.29,4.48-6.45,1.45-2.17,2.93-4.36,4.36-6.55,2.91-4.38,5.71-8.82,8.45-13.3,1.35-2.24,2.71-4.48,4.06-6.75.05-.07.1-.12.12-.2,1.28-2.19,2.56-4.41,3.84-6.63,1.28-2.27,2.59-4.58,3.84-6.87,1.16-2.07,2.29-4.16,3.4-6.26.3-.52.57-1.03.84-1.58,1.06-2.04,2.12-4.09,3.18-6.13,1.21-2.36,2.39-4.7,3.55-7.09,1.16-2.36,2.29-4.75,3.42-7.14,1.13-2.36,2.24-4.75,3.33-7.17v-.02c1.11-2.41,2.17-4.83,3.23-7.27,1.06-2.44,2.09-4.88,3.1-7.32,1.9-4.58,3.74-9.19,5.49-13.84.12-.27.25-.59.32-.89.02-.07.05-.12.07-.2.94-2.46,1.85-4.93,2.73-7.39.89-2.41,1.72-4.83,2.56-7.27.2-.57.39-1.16.59-1.72,1.13-3.37,2.24-6.72,3.3-10.12.62-1.92,1.21-3.87,1.8-5.81.47-1.58.94-3.13,1.4-4.7.67-2.32,1.33-4.66,1.97-7.02.49-1.75.96-3.5,1.43-5.27.1-.32.17-.64.25-.96.42-1.63.84-3.28,1.26-4.9.3-1.18.59-2.34.86-3.55.27-1.03.52-2.07.76-3.1,8.08-34.17,27.32-63.38,53.33-84.02,26.01-20.64,58.77-32.74,93.87-32.74Z"/>
  <path class="cls-1" d="m859.83,285.26l-24.16-24.16,24.13-24.13c12.09-12.06,21.74-26.07,28.65-41.58,7.98-17.87,12.03-36.91,12.03-56.6,0-37.09-14.44-71.95-40.65-98.13C833.61,14.44,798.76,0,761.68,0s-71.93,14.44-98.12,40.65l-24.17,24.17-24.16-24.16C589.02,14.44,554.16,0,517.08,0s-71.94,14.44-98.15,40.65c-40.39,40.39-51.88,102.56-28.61,154.69,6.92,15.53,16.54,29.52,28.61,41.59l24.16,24.16-24.17,24.17c-54.09,54.13-54.09,142.17,0,196.27,27.06,27.06,62.6,40.59,98.15,40.59s71.09-13.53,98.15-40.59l24.15-24.15,24.16,24.15c26.21,26.22,61.06,40.67,98.14,40.67s71.93-14.43,98.14-40.65h0c26.22-26.22,40.66-61.06,40.66-98.14s-14.44-71.93-40.66-98.15Zm-98.15-211.36c17.34,0,33.64,6.75,45.91,19.03,12.25,12.23,18.99,28.52,18.99,45.86,0,9.1-1.94,18.25-5.62,26.5-3.22,7.23-7.71,13.74-13.39,19.41l-96.18,96.18-91.78-91.78,96.19-96.18c12.25-12.26,28.54-19.01,45.87-19.01Zm-290.5,110.78c-5.65-5.64-10.14-12.17-13.37-19.43-10.88-24.39-5.51-53.46,13.37-72.34,12.26-12.26,28.56-19.01,45.9-19.01s33.64,6.75,45.9,19.01l24.15,24.15-25.75,25.75-66.04,66.03-24.17-24.17Zm91.8,244.6c-25.31,25.31-66.49,25.31-91.8,0-25.29-25.3-25.29-66.47,0-91.77l24.17-24.17h.01s72.01-72.02,72.01-72.02l91.78,91.78-40.36,40.36-31.66,31.66h0s-24.14,24.14-24.14,24.14Zm244.61,0h0c-12.26,12.27-28.56,19.02-45.9,19.02s-33.62-6.75-45.88-19.02l-24.16-24.15,91.79-91.77,24.15,24.15c12.26,12.26,19.01,28.56,19.01,45.9s-6.75,33.62-19.01,45.87Z"/>
</svg>