<?xml version="1.0" encoding="UTF-8"?>
<svg id="Layer_1" data-name="Layer 1" xmlns="http://www.w3.org/2000/svg" viewBox="0 0 386.58 270.38">
  <defs>
    <style>
      .cls-1 {
        fill: #1b7ae2;
      }
    </style>
  </defs>
  <path class="cls-1" d="m259.94,86.24l-7.3-7.3,7.29-7.29c3.66-3.65,6.57-7.88,8.66-12.57,2.41-5.4,3.64-11.16,3.64-17.11,0-11.22-4.37-21.75-12.29-29.66-7.93-7.93-18.46-12.29-29.67-12.29s-21.75,4.37-29.66,12.29l-7.31,7.31-7.3-7.3C178.07,4.37,167.53,0,156.32,0s-21.75,4.36-29.67,12.29c-12.21,12.21-15.68,31.01-8.65,46.77,2.09,4.69,5,8.92,8.65,12.57l7.3,7.3-7.31,7.31c-16.35,16.36-16.35,42.98,0,59.34,8.18,8.18,18.93,12.27,29.67,12.27s21.49-4.09,29.67-12.27l7.3-7.3,7.3,7.3c7.92,7.93,18.46,12.29,29.67,12.29s21.74-4.36,29.67-12.29c0,0,0,0,0,0,7.93-7.92,12.29-18.46,12.29-29.67s-4.37-21.75-12.29-29.67Zm-117.49-30.41c-1.71-1.71-3.07-3.68-4.04-5.87-3.29-7.37-1.67-16.16,4.04-21.87,3.71-3.71,8.63-5.75,13.88-5.75s10.17,2.04,13.88,5.75l7.3,7.3-5.34,5.34-22.41,22.41-7.3-7.3Zm27.75,73.95c-7.65,7.65-20.1,7.65-27.75,0-7.65-7.65-7.65-20.09,0-27.74l7.31-7.31h0s22.68-22.68,22.68-22.68l43.97-43.97c3.7-3.71,8.63-5.75,13.87-5.75s10.17,2.04,13.88,5.75c3.7,3.7,5.74,8.62,5.74,13.86,0,2.75-.59,5.52-1.7,8.01-.97,2.18-2.33,4.15-4.05,5.87l-55.75,55.75-10.9,10.89h0s-7.3,7.3-7.3,7.3Zm73.95,0h0c-3.71,3.71-8.64,5.75-13.88,5.75s-10.16-2.04-13.87-5.75l-7.3-7.3,27.75-27.74,7.3,7.3c3.71,3.71,5.75,8.63,5.75,13.88s-2.04,10.16-5.75,13.87Z"/>
  <g>
    <path class="cls-1" d="m120.48,160.16c-9.29-8.33-17.14-18.23-23.13-29.27-5.99-11.03-19.46-15.57-30.92-10.46l-12.24,5.46h0v.02c.19,1.03,5.41,28.39,35.73,65.66-18.62-17.09-32.98-38.74-41.34-63.18-1.58-4.63-2.95-9.35-4.09-14.17C39.61,93.56,21.23,78.93,0,78.93h0c0,97.64,72.39,178.38,166.43,191.45v-7.11c0-39.33-16.67-76.84-45.95-103.1Z"/>
    <path class="cls-1" d="m386.58,78.93c-21.23,0-39.61,14.64-44.5,35.3-1.14,4.82-2.51,9.54-4.09,14.17-8.36,24.44-22.72,46.09-41.34,63.18,30.32-37.26,35.54-64.63,35.73-65.66h0s0-.02,0-.02l-12.24-5.46c-11.46-5.11-24.93-.57-30.92,10.46-6,11.05-13.85,20.95-23.13,29.27-29.28,26.26-45.95,63.77-45.95,103.1v7.11c94.04-13.07,166.43-93.81,166.43-191.45h0Z"/>
  </g>
</svg>