<?xml version="1.0" encoding="utf-8"?>
<!-- Uploaded to: SVG Repo, www.svgrepo.com, Generator: SVG Repo Mixer Tools -->
<svg width="800px" height="800px" viewBox="0 -64.69 428.75 428.75" xmlns="http://www.w3.org/2000/svg"><defs><style>.a{fill:#ffffff;}.b{fill:#7a7473;}.c{fill:#211715;}.d{fill:#bdbdbd;}.e{fill:#d9d9d9;}.f{fill:#645d5c;}.g{fill:#f6c385;}.h{fill:#89705d;}.i{fill:#6dbf6b;}.j{fill:#ffda71;}</style></defs><path class="a" d="M306.436,111.077c1.3,2.292,2.558,5.06,1.336,7.254a2.671,2.671,0,0,0-.371,1.686c.236,1.542,1.617,1.422,2.7,1.707a4.4,4.4,0,0,1,1.841,1.036,27.261,27.261,0,0,0,2.708,3.175,11.555,11.555,0,0,0,2.275,1.837,5.473,5.473,0,0,0,4.036.729,13.188,13.188,0,0,0,6.262-3.32.952.952,0,0,1,1.252-.13,10.141,10.141,0,0,1,3.484,4c3.748-3.8,12.138-13.771,12.138-13.771a6.247,6.247,0,0,1-.989-1.415,5.287,5.287,0,0,1-.457-2.545c-3.343.181-8.564-1.415-10.732-3.131l-.2-.163a6.956,6.956,0,0,0-.905-4.881,4,4,0,0,0-2.884-2.088,2.734,2.734,0,0,0-2.143.937,3.879,3.879,0,0,0-.96,2.46c-2.277-1.242-3.124-1.978-5.073-2.527-3.391-.81-8.059-1.194-12.206.491a8.19,8.19,0,0,0-4.029,3.53,21.414,21.414,0,0,0,2.2,3.893C305.946,110.233,306.192,110.647,306.436,111.077Z"/><path class="b" d="M305.782,87.964a18.36,18.36,0,0,0-4.05,11.863A15.342,15.342,0,0,0,303.49,106a8.14,8.14,0,0,1,4.055-3.584c4.147-1.685,8.815-1.3,12.206-.491,1.949.549,2.8,1.285,5.073,2.527a3.879,3.879,0,0,1,.96-2.46,2.734,2.734,0,0,1,2.143-.937,4,4,0,0,1,2.884,2.088,6.956,6.956,0,0,1,.905,4.881l.2.163c2.168,1.717,7.39,3.312,10.734,3.13a40.154,40.154,0,0,1,1.008-5.791,22.537,22.537,0,0,0-3.353-16.6,22.231,22.231,0,0,0-9.212-7.592c-8.39-3.622-13.98-1.612-17.233-.071a22.408,22.408,0,0,0-7.911,6.475Q305.866,87.855,305.782,87.964Z"/><path class="c" d="M301.717,106.789a48.452,48.452,0,0,0,2.839,5.03c.777,1.349,1.914,3.153,1.705,4.794-.109.852-.667,1.574-.809,2.436a3.955,3.955,0,0,0,.55,2.8c.991,1.51,2.526,1.367,4,1.957.6.239.949.945,1.414,1.515a25.577,25.577,0,0,0,1.983,2.18,10.113,10.113,0,0,0,5.164,2.983,9.541,9.541,0,0,0,5.375-.862,16.149,16.149,0,0,0,2.522-1.281c.406-.26.793-.545,1.171-.844.186-.142.367-.291.541-.447.334-.247.33-.3-.011-.15l-1.009-.273a3.33,3.33,0,0,1,1.2.857,7.732,7.732,0,0,1,1.883,2.573,2.015,2.015,0,0,0,2.736.718,2.048,2.048,0,0,0,.718-2.736c-.878-1.948-3-4.67-5.26-5.1-1.816-.348-2.783,1.21-4.147,2.054a9.661,9.661,0,0,1-4.3,1.626c-3.491.164-5.034-4.217-7.439-5.921a6.14,6.14,0,0,0-2.034-.934c-.188-.047-1.362-.35-1.4-.317-.1.094.4.259.28.3a2.527,2.527,0,0,1,.192-.571,9.549,9.549,0,0,0,.46-1.153,6.54,6.54,0,0,0,.168-2.5c-.461-4.065-3.483-7.115-5.038-10.75a2.012,2.012,0,0,0-2.736-.717,2.051,2.051,0,0,0-.718,2.736Z"/><path class="c" d="M305.587,105.678a13.774,13.774,0,0,1-.306-13.093,20.617,20.617,0,0,1,12.061-10.554c5.122-1.585,10.8-.388,15.312,2.379a19.5,19.5,0,0,1,9.289,14.848,25.11,25.11,0,0,1-.636,7.751,18.6,18.6,0,0,0-.649,4.959,7.566,7.566,0,0,0,2.026,4.729c1.693,1.945,4.512-.894,2.828-2.829-1.881-2.162-.294-5.583.119-8.043a26.679,26.679,0,0,0,.1-8.352,23.5,23.5,0,0,0-11.215-16.614c-5.279-3.179-12-4.52-17.987-2.759a24.379,24.379,0,0,0-14.11,11.336,20.754,20.754,0,0,0-2.7,9.195,17.605,17.605,0,0,0,2.42,9.066c1.241,2.256,4.7.24,3.453-2.019Z"/><path class="c" d="M330.506,109.605a17.151,17.151,0,0,0,5.583,2.723,20.368,20.368,0,0,0,6.311,1,2,2,0,0,0,0-4q-.627.014-1.252-.034c-.222-.017-.443-.045-.665-.064-.254-.023.393.061,0,0l-.306-.048a22.853,22.853,0,0,1-2.874-.668c-.453-.136-.9-.285-1.347-.449-.215-.079-.427-.163-.641-.247-.23-.091-.067-.01.067.029a2.711,2.711,0,0,1-.331-.147c-.372-.171-.738-.354-1.093-.557-.162-.093-.322-.188-.478-.29s-.66-.478-.148-.081a2.187,2.187,0,0,0-1.414-.585,2,2,0,0,0-1.414,3.414Z"/><path class="c" d="M308.077,104.349a17.616,17.616,0,0,1,8.785-.938,13.259,13.259,0,0,1,3.51.839c.174.075.929.489,1.307.707.64.37,1.274.747,1.918,1.107,2.251,1.256,4.27-2.2,2.019-3.454a38.692,38.692,0,0,0-3.974-2.13,17.433,17.433,0,0,0-4.513-1.036,20.59,20.59,0,0,0-10.115,1.048,2.06,2.06,0,0,0-1.4,2.46,2.014,2.014,0,0,0,2.46,1.4Z"/><path class="c" d="M326.83,104.425c.029-.16.06-.318.1-.475.015-.054.153-.48.054-.211s.13-.206.155-.261c.074-.166-.2.175.057-.067.061-.059.46-.361.108-.134.114-.073.237-.135.348-.21.184-.123-.315.082.036,0,.49-.114-.422,0,.081-.012.443-.01-.337-.137.077.007.058.02.451.184.2.058s.141.091.189.12c.1.063.4.358.125.075.1.1.2.185.3.284.042.043.375.438.219.232s.091.146.119.191c.1.154.181.314.263.475.021.04.239.488.139.271s.086.225.1.269a9.334,9.334,0,0,1,.278,1.011c.09.381,0-.185.016.055.009.139.026.278.031.418a6.794,6.794,0,0,1-.038,1c.031-.284.02-.158-.022.049-.029.138-.061.276-.1.413-.045.166-.1.332-.151.5-.016.045-.185.487-.09.255s-.1.211-.121.253q-.123.251-.261.492c-.191.338-.4.663-.626.981a2.01,2.01,0,0,0,.717,2.736,2.052,2.052,0,0,0,2.737-.717,10.278,10.278,0,0,0,1.953-5.455,8.963,8.963,0,0,0-1.551-5.283,5.475,5.475,0,0,0-5.352-2.59,5.189,5.189,0,0,0-3.957,4.213,2,2,0,0,0,3.857,1.064Z"/><path class="c" d="M310.1,110.947c.215,1.114,1.544,3.245,3.379,2.534,2.288-1.2,1.027-3.96-.4-4.825C311.913,107.948,309.83,108.482,310.1,110.947Z"/><path class="c" d="M331.55,117.4a9.993,9.993,0,0,0,1.05-1.9,30.017,30.017,0,0,0,1.115-2.872,23.812,23.812,0,0,0,.678-2.46,9.383,9.383,0,0,0,.284-2.248,2,2,0,0,0-4,0c0,.118,0,.236,0,.354s-.065.589-.007.162c.06-.443-.021.113-.041.222-.033.18-.069.361-.109.54a24.259,24.259,0,0,1-.657,2.367q-.194.593-.415,1.177c-.079.209-.163.415-.245.622-.152.382.2-.448.033-.077-.043.1-.085.193-.128.29a9.741,9.741,0,0,1-1.007,1.8,2.014,2.014,0,0,0-.2,1.541,2.037,2.037,0,0,0,.919,1.195,2.058,2.058,0,0,0,2.736-.717Z"/><path class="c" d="M322.5,112.917c.422-1.488.925-2.957,1.484-4.4.087-.225.176-.45.266-.673.046-.114.093-.227.139-.34.185-.45-.115.262,0,0,.21-.475.419-.95.645-1.418a20.6,20.6,0,0,1,1.45-2.565,2.013,2.013,0,0,0-.718-2.736,2.048,2.048,0,0,0-2.736.717,29.489,29.489,0,0,0-2.851,5.817c-.58,1.485-1.1,3-1.536,4.533a2,2,0,1,0,3.857,1.063Z"/><path class="a" d="M321.761,112.612a2.574,2.574,0,0,0-2.392-.323,107.185,107.185,0,0,0-9.933,4.48c-.579.29-2.081,1.405-2.2,2.389a3.607,3.607,0,0,0,.864,2.769,20.439,20.439,0,0,0,2.847,3.242c1.3,1.192,4.3,3.813,6.073,4.253,4.209,1.043,6.235-.547,8.388-2.272a10.947,10.947,0,0,0,3.534-6.918,2.059,2.059,0,0,0-.543-1.621c-.9-.971-2.321-1.659-3.642-2.849C323.658,114.771,322.658,113.252,321.761,112.612Z"/><path class="c" d="M322.771,110.885c-2.494-1.56-5.038-.138-7.428.895-2.24.967-4.45,2.016-6.627,3.117-1.93.977-3.672,2.749-3.489,5.055.189,2.378,2.106,4.464,3.723,6.074,2.94,2.927,6.471,5.894,10.855,5.724,4.154-.162,8.1-3.291,9.843-6.959,1.3-2.74,2.141-6.057-.534-8.231-1.042-.846-2.226-1.512-3.194-2.45a37.44,37.44,0,0,0-2.744-2.913,2.068,2.068,0,0,0-2.829,0,2.014,2.014,0,0,0,0,2.829c1.492,1.163,2.5,2.816,4.016,3.979.71.544,1.493,1.009,2.171,1.589.215.184.381.311.421.553a3.853,3.853,0,0,1-.307,1.382,9,9,0,0,1-5.694,6.031c-3.047.869-5.366-.985-7.553-2.877a22.284,22.284,0,0,1-3.376-3.5c-.3-.4-.92-1.106-.814-1.628.045-.224.581-.657.91-.875a39.389,39.389,0,0,1,5.336-2.6c.979-.449,1.964-.887,2.963-1.291.722-.292,1.6-.911,2.332-.453C322.941,115.708,324.951,112.248,322.771,110.885Z"/><path class="a" d="M241.3,122.855c5.226,0,20.568-.1,25.445-.1V87.485c-4.877,0-20.349.2-25.576.2,0,7.657.131,23.758.131,35.172"/><path class="c" d="M241.3,124.855c8.481,0,16.963-.1,25.445-.1a2.029,2.029,0,0,0,2-2V87.485a2.029,2.029,0,0,0-2-2c-8.526,0-17.05.2-25.576.2a2.03,2.03,0,0,0-2,2c0,11.724.129,23.448.131,35.172,0,2.573,4,2.578,4,0,0-11.724-.129-23.448-.131-35.172l-2,2c8.526,0,17.05-.2,25.576-.2l-2-2v35.27l2-2c-8.482,0-16.964.1-25.445.1-2.574,0-2.579,4,0,4Z"/><path class="c" d="M251.759,114.414h4.265a2.062,2.062,0,0,0,1.414-.586,2,2,0,0,0-1.414-3.414h-4.265a2.065,2.065,0,0,0-1.414.585,2,2,0,0,0,1.414,3.415Z"/><path class="d" d="M211.2,274.873V3.612c-23.077,0-56.21-.861-91.158-.861C91.514,2.751,56.2,2,29.486,2V3.327c-.022,24.53-.6,83.955-.6,101.687,0,41.686.422,107.861.424,168.384"/><path class="e" d="M198.6,275.741V16.488c-19.153,0-49.552-.715-78.559-.715-23.681,0-55.894-.623-78.062-.623v1.1c-.018,20.36-.5,75.135-.5,89.853,0,34.6.35,118.18.352,168.414"/><path class="c" d="M200.6,275.741V16.488a2.03,2.03,0,0,0-2-2c-20.4,0-40.792-.481-61.188-.641-20.985-.165-41.968-.219-62.953-.453-10.826-.12-21.653-.242-32.48-.244a2.029,2.029,0,0,0-2,2c0,15.532-.14,31.065-.245,46.6-.1,14.491-.236,28.984-.252,43.476-.016,14.977.041,29.955.08,44.933q.079,30.1.165,60.2.074,29.035.1,58.07,0,3.045,0,6.091c0,2.573,4,2.578,4,0q0-28.33-.088-56.66-.075-30.423-.165-60.845-.066-24-.1-48c-.006-13.588.116-27.176.208-40.764.109-16.215.24-32.431.282-48.646q.006-2.225.007-4.449l-2,2c19.88,0,39.76.361,59.639.531,21.77.187,43.538.213,65.308.5,10.557.14,21.116.3,31.674.306l-2-2V275.741c0,2.574,4,2.578,4,0Z"/><path class="c" d="M213.2,274.873V3.612a2.03,2.03,0,0,0-2-2c-22.984,0-45.965-.561-68.947-.759C117.518.641,92.783.6,68.045.3,55.193.152,42.34,0,29.486,0a2.029,2.029,0,0,0-2,2c0,14.413-.122,28.826-.225,43.238q-.165,23.278-.324,46.556c-.08,14.156-.041,28.312,0,42.468q.087,31.278.215,62.554.117,34.033.158,68.068,0,4.257,0,8.514c0,2.574,4,2.578,4,0q0-34.193-.133-68.384-.105-31.878-.222-63.755c-.047-15.034-.114-30.069-.042-45.1q.106-22.4.3-44.807c.108-14.895.227-29.79.263-44.685q.006-2.331.006-4.663l-2,2c23.542,0,47.082.457,70.622.656,25.154.212,50.3.25,75.457.6,11.879.167,23.758.352,35.638.354l-2-2V274.873c0,2.573,4,2.578,4,0Z"/><path class="c" d="M1.932,277.756c23.128,0,46.257.083,69.385.091q10.67,0,21.34.02,17.1.019,34.209.045,21.864.03,43.726.063l49.427.074,51.208.078q24.9.039,49.794.075l44.46.065q17.654.024,35.305.047,11.4.013,22.808.022h3.224c2.574,0,2.578-4,0-4q-9.574,0-19.15-.015-16.366-.018-32.734-.042-21.21-.028-42.421-.061l-48.831-.073-51.38-.078-50.023-.075-45.458-.067q-18.486-.027-36.973-.05-12.361-.016-24.723-.027-27.168-.019-54.338-.075-9.427-.017-18.855-.018c-2.574,0-2.578,4,0,4Z"/><path class="d" d="M172.689,131.856c-4.944,0-7.758,3.16-7.758,7.434,0,3.942,1.926,7.849,8.283,7.849,4.72,0,7.342-2.921,7.342-7.641C180.556,135.078,177.484,131.856,172.689,131.856Z"/><path class="c" d="M172.689,129.856c-4.271.043-8.2,2.317-9.385,6.595-.94,3.386-.222,7.666,2.425,10.127,3.079,2.863,8.352,3.34,12.082,1.568,3.656-1.737,5.13-6.059,4.662-9.877a9.323,9.323,0,0,0-2.975-5.977,10.375,10.375,0,0,0-6.809-2.436c-2.574-.028-2.576,3.972,0,4,.225,0,.449.007.673.022-.012,0,.7.076.328.023a8.017,8.017,0,0,1,1.2.277c.127.039.251.086.377.127.564.185-.276-.171.24.1a8.408,8.408,0,0,1,1.13.681c-.282-.212.034.034.1.095.111.106.226.207.333.317.129.131.249.268.369.407-.267-.311.1.148.126.183.172.259.312.531.462.8.277.5-.092-.334.095.213.083.242.165.482.23.731.05.19.085.381.128.573.136.605-.011-.208.028.162a9.708,9.708,0,0,1,.045,1.144q-.006.318-.028.634c0,.016-.074.688-.017.277a8.382,8.382,0,0,1-.241,1.13c-.051.177-.115.349-.169.526-.166.537.181-.308-.074.181-.133.257-.263.512-.421.755-.037.057-.377.491-.087.143-.107.128-.217.255-.334.375s-.244.229-.365.345c-.319.307.219-.114-.128.1-.3.183-.585.358-.9.512.4-.195-.128.046-.184.066q-.261.09-.53.161c-.122.033-.245.062-.368.089-.027,0-.653.116-.243.058a9.6,9.6,0,0,1-1.516.071,7.24,7.24,0,0,1-4-1.071c-.058-.038-.482-.391-.144-.1-.1-.091-.209-.181-.31-.277s-.654-.755-.385-.387a6.731,6.731,0,0,1-.511-.81c-.05-.093-.093-.19-.143-.284-.093-.206-.089-.192.011.04q-.058-.149-.111-.3a8.231,8.231,0,0,1-.263-.927c-.029-.132-.144-.934-.091-.428a13.474,13.474,0,0,1-.04-2.107c.029-.608-.093.347.029-.239.051-.247.1-.493.167-.736.049-.179.113-.352.168-.529.133-.436-.114.173.078-.193a8.049,8.049,0,0,1,.64-1.072c-.255.346.1-.107.138-.144q.182-.2.378-.378c.032-.03.487-.4.15-.145a6.168,6.168,0,0,1,.614-.4c.163-.095.331-.177.5-.263.214-.1.231-.106.052-.027.092-.035.184-.069.277-.1a7.356,7.356,0,0,1,2.535-.406C175.262,133.83,175.268,129.83,172.689,129.856Z"/><path class="f" d="M387.485,295.8c2.131-.567,4.243-1.229,6.309-1.89a6.074,6.074,0,0,0,2.073-.968,4.212,4.212,0,0,0,1.28-2.151c.877-3.156-.6-6.437-2.064-9.369a14.127,14.127,0,0,1-13.9,3.176,1.4,1.4,0,0,0-.816.013c-5,.686-8.305,2.965-11.422,6.933-.783,1-1.49,2.357-.885,3.471a3.311,3.311,0,0,0,2.013,1.339C375.7,298.182,381.67,297.347,387.485,295.8Z"/><path class="a" d="M338.481,157.287c-.516,3.563-1.342,16.9-1.859,20.467a11.992,11.992,0,0,1-.714,3.033,11.636,11.636,0,0,1-1.416,2.271c-3.892,5.266-9,11.739-13.24,16.416-.662.733-6.335,1-7.687,1.535a23.407,23.407,0,0,0-7.605,5.066c-3.271,3.158-4.206,8.2-4.448,12.9-.256,4.971,20.294-2.687,28.781-10,5.2-4.479,16.848-16.492,18.78-22.505,2.451-7.626,1.566-14.922,2.106-22.915,0-8.289-12.7-14.016-12.7-6.266"/><path class="g" d="M340.425,289.028c0-15.236-.289-59.962-.289-74.178H237.313c0,14.216.579,59.322.579,74.559,22.322,0,69.26-.381,102.533-.381"/><path class="h" d="M277.792,214.916V225.9c1.129,0,7.218.042,8.929.042,1.4,0,9.741.037,11.048.037,0-.021,2.149-.043,2.149-.065,0-1.2.029-4.43.029-5.3,0-2.04-.021-2.67-.021-5.632"/><path class="i" d="M347.313,174.425a48.917,48.917,0,0,1-5.728-9.67c-1.1-2.2-6.873-16.925-7.291-18.484-1.621-6.054-1.644-8.113-1.643-18.2a47.6,47.6,0,0,0,5.736,3.441c.609.326,1.165.621,1.62.87,4.3-3.663,7.794-14.006,7.539-16.159l-.034-.283.034.007a23.43,23.43,0,0,1,5.7,2.492,25.828,25.828,0,0,1,5.045,3.584,65.743,65.743,0,0,1,9.946,11.667c6.478,9.217,15.729,24.058,21.654,37,2,3,3.229,6.485,2.3,8.366-5.867,2.309-23.582,8.759-30.32,9.938Z"/><path class="a" d="M380.82,284.547c-5.066-8.172-14.089-27.336-19.156-35.508-2.1-3.389-4.243-6.882-4.95-10.806-.666-3.69-.009-7.476.647-11.168,1.7-9.543,2.819-28.527,4.514-38.07,6.738-1.179,24.453-7.629,30.32-9.938,7.581,14.149-2.725,33.994-7.907,48.209-1.015,2.785-1.986,5.722-1.568,8.656.383,2.685,2.671,6.858,4,9.218,5.15,9.115,7.788,27.5,8.5,37.949"/><path class="c" d="M342.425,289.028c0-9.25-.054-18.5-.1-27.752q-.079-16.651-.156-33.3-.027-6.561-.036-13.124a2.029,2.029,0,0,0-2-2H237.313a2.03,2.03,0,0,0-2,2c0,9.021.11,18.042.2,27.063q.16,16.892.313,33.783c.036,4.571.071,9.142.071,13.713a2.03,2.03,0,0,0,2,2c11.7,0,23.391-.069,35.086-.129q21.963-.111,43.927-.2,11.76-.042,23.52-.048c2.574,0,2.579-4,0-4q-21.45,0-42.9.129-20.873.1-41.745.205-8.943.037-17.886.047l2,2c0-9.264-.108-18.528-.195-27.791q-.157-16.789-.312-33.58c-.035-4.4-.071-8.792-.072-13.188l-2,2H340.136l-2-2c0,9.008.055,18.016.1,27.024q.079,16.754.156,33.506.027,6.825.035,13.648c0,2.574,4,2.579,4,0Z"/><path class="c" d="M275.8,214.916V225.9a2.03,2.03,0,0,0,2,2c6.3,0,12.6.054,18.895.076.543,0,1.077-.061,1.614-.069-.947.013.347.044.65.038a10.44,10.44,0,0,0,1.5-.1,2.01,2.01,0,0,0,1.468-1.928q0-5.464.009-10.93c0-2.573-4-2.578-4,0q0,5.464-.009,10.93l1.468-1.929c.87-.142-.112-.047-.435-.04-.383.008-.772,0-1.154.03-1.123.092.288.051-.276,0-.2-.017-.408,0-.609,0q-2.148-.006-4.3-.016l-11.453-.048c-1.123,0-2.246-.012-3.369-.012l2,2V214.916c0-2.574-4-2.578-4,0Z"/><path class="c" d="M330.651,128.355c0,6.521-.162,13.24,2.059,19.479,1.967,5.523,4.16,11,6.46,16.388a52.616,52.616,0,0,0,6.729,11.617,2.011,2.011,0,0,0,2.829,0,2.054,2.054,0,0,0,0-2.829,48.237,48.237,0,0,1-5.846-10.206c-.4-.915-.764-1.81-1.255-3.019q-.89-2.19-1.756-4.39c-1.894-4.8-3.951-9.538-4.769-14.662-.611-3.823-.451-8.323-.451-12.378,0-2.574-4-2.578-4,0Z"/><path class="c" d="M391.664,177.128c-4.9,1.923-9.856,3.7-14.834,5.393-5.054,1.724-10.215,3.6-15.486,4.545a2.018,2.018,0,0,0-1.4,2.461,2.045,2.045,0,0,0,2.46,1.4c5.272-.945,10.432-2.821,15.486-4.546,4.978-1.7,9.938-3.47,14.834-5.393a2.059,2.059,0,0,0,1.4-2.46,2.014,2.014,0,0,0-2.46-1.4Z"/><path class="a" d="M363.255,165.076c-.277,5.5-.8,12.677-1.566,18.133a15.362,15.362,0,0,1-1.328,5.03,15.8,15.8,0,0,1-3.14,3.805c-8.026,7.858-16.307,15.526-23.25,24.356-.563,2.129-.8,4.466-2.025,5.66-4.353,4.246-10.16,7.8-16.176,6.918a5.373,5.373,0,0,1-3.224-1.437,2.555,2.555,0,0,1-.279-3.275c-1.846.592-4.552-.1-4.53-2.038.013-1.158,1.035-2.016,1.967-2.7l5.793-4.283c-1.376,1.367-4.045.174-4.433-1.726s.961-3.811,2.679-4.71a13.593,13.593,0,0,1,5.661-1.118c1.79-.093,3.9.735,7.048-.742a235.842,235.842,0,0,1,16.557-22.887,31.985,31.985,0,0,0,3.566-5.809c1.725-3.672,1.034-9.119.87-13.173"/><path class="c" d="M361.255,165.076c-.289,5.673-.674,11.36-1.413,16.994-.369,2.822-.861,5.257-2.866,7.385-2.171,2.3-4.531,4.444-6.8,6.651-4.41,4.292-8.79,8.625-12.88,13.227q-1.532,1.724-3,3.5-.735.888-1.452,1.792a5.535,5.535,0,0,0-1.091,2.456,10.886,10.886,0,0,1-.94,3.188,12.085,12.085,0,0,1-2.979,2.754,19.152,19.152,0,0,1-8.239,3.936c-.74.128-7.013.276-5.6-1.681,1.054-1.461-.685-3.379-2.259-2.938a2.407,2.407,0,0,1-1.811-.046c.1.065-.212-.114-.187-.058-.03-.066.415-.508.548-.627,1.9-1.707,4.164-3.118,6.221-4.639l-2.424-3.141c-.181.157-.722-.232-.838-.359a1.386,1.386,0,0,1,.1-1.674c1.133-1.845,3.714-1.982,5.648-2.085,1.865-.1,3.668.266,5.534-.058a6.081,6.081,0,0,0,3.5-1.494,32.354,32.354,0,0,0,2.173-3.368c2.855-4.371,5.915-8.6,9.085-12.751,3.047-3.987,6.528-7.746,8.775-12.271,2.282-4.595,1.605-9.746,1.39-14.691-.111-2.564-4.112-2.578-4,0,.152,3.484.7,7.176-.11,10.613-.837,3.539-3.442,6.564-5.638,9.348a231.722,231.722,0,0,0-14.972,20.9l.717-.718c-2.241.99-4.525.363-6.871.515-2.874.186-5.985.714-7.947,3.042-1.738,2.061-2.329,5.15-.4,7.307a4.733,4.733,0,0,0,6.691.574c1.7-1.464-.587-4.5-2.424-3.141q-2.7,2-5.407,4c-1.509,1.121-3.136,2.35-3.31,4.379-.324,3.767,4.026,5.145,7.029,4.305l-2.259-2.938c-2.108,2.921.376,6.35,3.286,7.322a14.881,14.881,0,0,0,9.326-.436,27,27,0,0,0,8.392-5.016,10.269,10.269,0,0,0,3.028-3.471,28.585,28.585,0,0,0,1.328-4.725l-.514.883a197.774,197.774,0,0,1,17.621-18.879q2.318-2.256,4.638-4.508a27.191,27.191,0,0,0,4.027-4.469c2.124-3.274,2.2-7.756,2.59-11.528.458-4.44.766-8.9.993-13.354.132-2.573-3.869-2.566-4,0Z"/><path class="c" d="M336.553,156.755c-.684,4.835-.91,9.743-1.31,14.607-.1,1.177-.2,2.354-.306,3.531q-.067.719-.143,1.438c-.024.219-.05.437-.073.656-.009.084-.02.167-.031.251-.037.306.051-.354.013-.084a11.978,11.978,0,0,1-.563,2.686,11.394,11.394,0,0,1-1.613,2.53q-1.685,2.274-3.42,4.509c-2.71,3.486-5.494,6.918-8.416,10.229-1.7,1.923,1.12,4.763,2.828,2.828,2.629-2.978,5.144-6.055,7.6-9.18q1.9-2.423,3.756-4.884a18.123,18.123,0,0,0,3.192-5.181,34.15,34.15,0,0,0,1.011-7.339c.241-2.771.452-5.545.675-8.317.118-1.465.237-2.93.371-4.393.056-.611.113-1.222.178-1.832.023-.223.048-.445.073-.667.013-.114.027-.227.041-.34.037-.31-.068.477,0,.015a2.067,2.067,0,0,0-1.4-2.46,2.015,2.015,0,0,0-2.46,1.4Z"/><path class="c" d="M321.743,197.469a24,24,0,0,0-19.861,10.5,2,2,0,0,0,3.454,2.019,19.854,19.854,0,0,1,16.407-8.514c2.575.022,2.577-3.978,0-4Z"/><path class="c" d="M390.469,180.066c3.249,6.192,2.753,13.47,1.241,20.083-1.665,7.28-4.528,14.216-7.263,21.142-1.417,3.588-3.121,7.284-3.655,11.129-.548,3.945.834,7.327,2.6,10.777a70.01,70.01,0,0,1,3.864,7.982,80.206,80.206,0,0,1,2.8,9.864,147.637,147.637,0,0,1,3.169,22.046c.177,2.554,4.178,2.574,4,0a160.714,160.714,0,0,0-2.658-20c-1.277-6.46-2.89-13.156-6.116-18.954-1.521-2.735-3.655-5.919-3.819-9.135-.2-3.958,1.851-8.008,3.269-11.62,2.76-7.034,5.71-14.043,7.487-21.408,1.913-7.931,2.434-16.489-1.467-23.921-1.2-2.28-4.65-.26-3.453,2.019Z"/><path class="c" d="M358.719,197.4c-.778,6.871-1.361,13.763-2.131,20.636-.312,2.794-.649,5.587-1.13,8.358-.674,3.874-1.345,7.749-.781,11.681.893,6.226,5.079,11.408,8.039,16.789,2.753,5,5.334,10.105,7.954,15.18,2.695,5.222,5.334,10.512,8.423,15.516,1.35,2.186,4.812.179,3.454-2.019-5.652-9.156-10.111-19.045-15.2-28.517-1.119-2.086-2.255-4.165-3.474-6.194-1.74-2.9-3.684-5.736-4.7-8.988-1.118-3.561-.744-7.236-.128-10.854.5-2.946.946-5.892,1.3-8.86.9-7.564,1.515-15.159,2.372-22.728a2.012,2.012,0,0,0-2-2,2.047,2.047,0,0,0-2,2Z"/><path class="j" d="M338.387,131.516a47.476,47.476,0,0,1-5.736-3.442c3.84-3.757,8.362-11.34,11.313-15.83,1.915,1.524,3.509,3.374,3.582,3.983.255,2.153-3.236,12.5-7.539,16.159C339.552,132.137,339,131.842,338.387,131.516Z"/><path class="c" d="M339.4,129.789a45.959,45.959,0,0,1-5.736-3.442l.4,3.141c4.717-4.673,8.011-10.722,11.626-16.234l-3.141.405a16.477,16.477,0,0,1,2.833,2.747,2.082,2.082,0,0,0,.262.4c.1.068-.119-.4-.09-.458a2.743,2.743,0,0,0-.029.638c-.008.134.095-.444-.008.013-.04.181-.067.364-.106.545-.076.358-.165.713-.26,1.066-.228.847-.5,1.684-.791,2.51-1.249,3.52-2.979,7.418-5.768,9.849l2.424-.313c-.539-.293-1.08-.581-1.621-.87-2.27-1.212-4.292,2.239-2.019,3.454.541.289,1.082.577,1.621.87a2.073,2.073,0,0,0,2.424-.313c3.456-3.013,5.5-7.815,6.952-12.059a18.573,18.573,0,0,0,1.178-5.046c.107-2.426-2.483-4.494-4.174-5.865a2.039,2.039,0,0,0-3.141.405c-3.43,5.23-6.524,10.99-11,15.425a2.033,2.033,0,0,0,.4,3.141,46.032,46.032,0,0,0,5.736,3.442C339.646,134.459,341.669,131.007,339.4,129.789Z"/><path class="i" d="M362.949,135.715c-2.091-2-5.3-3.694-10.181-3.979-3.942-.231-7.664,3.625-8.388,6.613-2.247,9.279-.388,17.553,1.251,26.809,4.233,0,13.04-.219,18.256-.307a2.953,2.953,0,0,0,2.883-2.561,77.451,77.451,0,0,0,.041-17.336C366.7,143.723,365.7,138.352,362.949,135.715Z"/><path class="c" d="M364.363,134.3c-4.356-4.083-12.276-6.466-17.455-2.637a12.274,12.274,0,0,0-4.864,8.06,44.537,44.537,0,0,0-.475,12.265c.425,4.606,1.325,9.151,2.134,13.7a2.013,2.013,0,0,0,1.928,1.469c3.24,0,6.48-.075,9.719-.14q2.716-.052,5.432-.109c1.653-.033,3.543.184,5.08-.509a5.151,5.151,0,0,0,2.939-4.354,60.827,60.827,0,0,0,.475-7.021,62.9,62.9,0,0,0-.665-11.5c-.579-3.3-1.842-6.816-4.248-9.225-1.821-1.824-4.65,1-2.828,2.829,1.756,1.758,2.559,4.327,3.07,6.7.085.4.161.794.22,1.195.016.106-.034-.45,0,.141.035.512.09,1.023.131,1.534.157,1.98.268,3.964.306,5.95s0,3.992-.133,5.983a22.94,22.94,0,0,1-.3,3.165c-.1.489-.242.865-.759,1.028a6.242,6.242,0,0,1-1.589.046l-2.237.044-4.9.1c-3.239.065-6.479.137-9.719.14l1.929,1.468c-1.484-8.346-3.719-17.634-1.18-26.011.79-2.607,3.621-4.977,6.388-4.879a13.574,13.574,0,0,1,8.767,3.394C363.412,138.889,366.246,136.066,364.363,134.3Z"/><path class="c" d="M393.922,180.066c1.018-2.352.469-4.775-.507-7.055a36.386,36.386,0,0,0-1.8-3.33c-.664-1.2-1.173-2.511-1.778-3.742-2.485-5.057-5.211-10-8.07-14.85q-4.047-6.873-8.467-13.517a116.835,116.835,0,0,0-9.464-12.794,41.323,41.323,0,0,0-7.316-6.678,25.59,25.59,0,0,0-8.448-4.078c-2.508-.558-3.579,3.3-1.063,3.857a22.211,22.211,0,0,1,6.755,3.183,33.055,33.055,0,0,1,6.179,5.373,93.541,93.541,0,0,1,8.986,11.787,266.461,266.461,0,0,1,15.527,25.929c1.291,2.481,2.369,5.1,3.7,7.549a23.179,23.179,0,0,1,1.932,3.765c.223.675.669,1.893.371,2.582a2.066,2.066,0,0,0,.717,2.737,2.014,2.014,0,0,0,2.736-.718Z"/><path class="c" d="M388.016,297.73q3.18-.857,6.31-1.891a6.49,6.49,0,0,0,4.309-3.349c1.856-4.044,0-8.4-1.825-12.077a2.02,2.02,0,0,0-3.141-.4,12.31,12.31,0,0,1-9.379,3.2,14.028,14.028,0,0,1-2.4-.488,6.306,6.306,0,0,0-2.813.075,18.083,18.083,0,0,0-4.824,1.588,18.368,18.368,0,0,0-7.689,7.126c-.944,1.765-1.063,4,.513,5.454,1.493,1.383,3.891,1.806,5.83,2.1,5.086.769,10.176-.044,15.107-1.338,2.488-.653,1.433-4.512-1.063-3.857-4.71,1.235-9.73,2.138-14.561,1.044a15.546,15.546,0,0,1-1.788-.49,2.41,2.41,0,0,1-.521-.2q-.452-.363-.239-.08c-.174-.634.872-1.64,1.238-2.069a17.1,17.1,0,0,1,3.878-3.5,14.079,14.079,0,0,1,4.814-1.848q.369-.072.743-.131.7-.063.133-.068c.476.062.969.285,1.445.383a16.534,16.534,0,0,0,3.128.344,16.341,16.341,0,0,0,11.275-4.418l-3.142-.4c1.161,2.343,2.963,5.735,1.67,8.37-.536,1.093-2.05,1.274-3.1,1.6-1.649.519-3.305,1.016-4.975,1.466C384.47,294.541,385.523,298.4,388.016,297.73Z"/><path class="c" d="M229.962,199.236l2.1,5.707a2.148,2.148,0,0,0,.919,1.195,2,2,0,0,0,2.938-2.258l-2.1-5.708a2.151,2.151,0,0,0-.919-1.195,2.044,2.044,0,0,0-1.541-.2,2.024,2.024,0,0,0-1.4,2.461Z"/><path class="c" d="M221.8,210.488q3.059,1.158,6.08,2.416a2,2,0,0,0,1.541-.2,2,2,0,0,0,.718-2.736l-.313-.405a2,2,0,0,0-.882-.514q-3.019-1.26-6.08-2.416a2.02,2.02,0,0,0-1.542.2,2,2,0,0,0-.717,2.736,2.27,2.27,0,0,0,1.195.919Z"/><path class="i" d="M337.015,86.833l-34.9,17.882a16.252,16.252,0,0,1-5.341,1.984,2.1,2.1,0,0,1-1.537-.263c-1-.761-.276-2.334.5-3.316q2.367-2.991,4.817-5.916c-2.356-6.853,1.407-11.592,4.389-14.966,2.16-2.444,6.31-4.433,10.194-5.589,10.437-3.106,18.038.985,22.511,8.36a1.314,1.314,0,0,1,.237,1.124,1.379,1.379,0,0,1-.722.622Z"/><path class="c" d="M336.006,85.106,313.478,96.65l-11.264,5.772a21.414,21.414,0,0,1-5.1,2.2,9.863,9.863,0,0,0-.981.106c-.093.106.749.659.626.7.012,0,.073-.317.093-.339.541-.59.988-1.411,1.5-2.043,1.23-1.532,2.69-3,3.784-4.627.653-.972.3-1.785.035-2.819a10.243,10.243,0,0,1-.344-2.487,12.341,12.341,0,0,1,2.949-7.564,17.816,17.816,0,0,1,6.971-5.516,24.913,24.913,0,0,1,9.717-2.424,15.536,15.536,0,0,1,8.551,2.237,16.471,16.471,0,0,1,3.372,2.79,18.222,18.222,0,0,1,1.346,1.591c.31.416,1.231,1.406,1.164,1.909l.273-1.009q.033-.2-.156-.018c-2.292,1.174-.27,4.627,2.019,3.454,4.653-2.385-.822-8.01-3.191-10.083A19.424,19.424,0,0,0,324.4,73.766a26.263,26.263,0,0,0-13.217,2.177,24.581,24.581,0,0,0-6.367,3.659,23.126,23.126,0,0,0-3.729,4.23,15.088,15.088,0,0,0-2.458,13.9l.515-1.946q-1.989,2.377-3.926,4.8c-1.1,1.38-2.43,2.842-2.455,4.723a3.338,3.338,0,0,0,3.209,3.4,11.787,11.787,0,0,0,5.571-1.477c3.9-1.822,7.693-3.918,11.524-5.881l11.706-6,13.252-6.79C340.317,87.385,338.3,83.933,336.006,85.106Z"/></svg>