<?xml version="1.0" ?>

<!-- Uploaded to: SVG Repo, www.svgrepo.com, Generator: SVG Repo Mixer Tools -->
<svg fill="#0386d0" width="800px" height="800px" viewBox="0 0 32 32" xmlns="http://www.w3.org/2000/svg">

<title/>

<g data-name="01" id="_01">

<path d="M24.66,13.25l-8-7a1,1,0,0,0-1.32,0l-8,7h0l0,0-2,2a1,1,0,0,0,1.41,1.41L7,16.41V26a1,1,0,0,0,1,1H24a1,1,0,0,0,1-1V16.41l.29.29a1,1,0,0,0,1.41-1.41ZM23,25H9V14.45l7-6.13,7,6.12ZM16,15a1,1,0,0,1,1,1v2h2a1,1,0,0,1,0,2H17v2a1,1,0,0,1-2,0V20H13a1,1,0,0,1,0-2h2V16A1,1,0,0,1,16,15Z"/>

</g>

</svg>