<?xml version="1.0" ?>

<!-- Uploaded to: SVG Repo, www.svgrepo.com, Generator: SVG Repo Mixer Tools -->
<svg fill="#000000" width="800px" height="800px" viewBox="0 0 32 32" xmlns="http://www.w3.org/2000/svg">

<title/>

<g>

<path d="M17.5,11a6.48,6.48,0,0,0-1.89-4.57l0,0,0,0a6.5,6.5,0,0,0-9.19,9.19l0,0,0,0A6.5,6.5,0,0,0,17.5,11Zm-11,0A4.5,4.5,0,0,1,11,6.5a4.46,4.46,0,0,1,2.39.7L7.2,13.39A4.46,4.46,0,0,1,6.5,11ZM11,15.5a4.46,4.46,0,0,1-2.39-.7L14.8,8.61A4.46,4.46,0,0,1,15.5,11,4.5,4.5,0,0,1,11,15.5Zm14.61.93,0,0,0,0a6.5,6.5,0,0,0-9.19,9.19l0,0,0,0a6.5,6.5,0,0,0,9.19-9.19ZM16.5,21A4.5,4.5,0,0,1,21,16.5a4.46,4.46,0,0,1,2.39.7L17.2,23.39A4.46,4.46,0,0,1,16.5,21ZM21,25.5a4.46,4.46,0,0,1-2.39-.7l6.19-6.19A4.46,4.46,0,0,1,25.5,21,4.5,4.5,0,0,1,21,25.5Z"/>

</g>

</svg>